<svg xmlns="http://www.w3.org/2000/svg" width="24" height="24" fill="none"><rect width="18.5" height="16.5" x="2.75" y="4.75" stroke="#000" stroke-width="1.5" rx="2.25"/><path stroke="#000" stroke-width="1.5" d="M2 8.25h19.636"/><path fill="#000" d="M17.477 3a.75.75 0 0 0-1.5 0zm-1.5 0v1h1.5V3zM7.66 3a.75.75 0 0 0-1.5 0zm-1.5 0v1h1.5V3zm.09 8.5h1.5V13h-1.5zm2.5 0h1.5V13h-1.5zm2.5 0h1.5V13h-1.5zm2.5 0h1.5V13h-1.5zm2.5 0h1.5V13h-1.5zm-10 2.5h1.5v1.5h-1.5zm2.5 0h1.5v1.5h-1.5zm2.5 0h1.5v1.5h-1.5zm2.5 0h1.5v1.5h-1.5zm2.5 0h1.5v1.5h-1.5zm-10 2.5h1.5V18h-1.5zm2.5 0h1.5V18h-1.5zm2.5 0h1.5V18h-1.5z"/></svg>