<svg width="24" height="24" viewBox="0 0 24 24" fill="none" xmlns="http://www.w3.org/2000/svg">
<rect x="2.75" y="4.75" width="18.5" height="16.5" rx="2.25" stroke="black" stroke-width="1.5"/>
<line x1="2" y1="8.25" x2="21.6364" y2="8.25" stroke="black" stroke-width="1.5"/>
<path d="M17.4773 3C17.4773 2.58579 17.1415 2.25 16.7273 2.25C16.3131 2.25 15.9773 2.58579 15.9773 3L17.4773 3ZM15.9773 3L15.9773 4L17.4773 4L17.4773 3L15.9773 3Z" fill="black"/>
<path d="M7.65909 3C7.65909 2.58579 7.3233 2.25 6.90909 2.25C6.49487 2.25 6.15909 2.58579 6.15909 3L7.65909 3ZM6.15909 3L6.15909 4L7.65909 4L7.65909 3L6.15909 3Z" fill="black"/>
<path d="M12 11.5L12 18.5" stroke="black" stroke-width="1.5" stroke-linecap="round"/>
<path d="M15.5 15H8.5" stroke="black" stroke-width="1.5" stroke-linecap="round"/>
</svg>
