<svg width="16" height="16" viewBox="0 0 16 16" fill="none" xmlns="http://www.w3.org/2000/svg">
<rect x="2.75" y="3.75" width="10.5" height="9.5" rx="1.25" stroke="black" stroke-width="1.5"/>
<line x1="2" y1="6.25" x2="14" y2="6.25" stroke="black" stroke-width="1.5"/>
<path d="M11.75 3C11.75 2.58579 11.4142 2.25 11 2.25C10.5858 2.25 10.25 2.58579 10.25 3L11.75 3ZM10.25 3L10.25 4L11.75 4L11.75 3L10.25 3Z" fill="black"/>
<path d="M5.75 3C5.75 2.58579 5.41421 2.25 5 2.25C4.58579 2.25 4.25 2.58579 4.25 3L5.75 3ZM4.25 3L4.25 4L5.75 4L5.75 3L4.25 3Z" fill="black"/>
<path d="M8 8.25L8 11.25" stroke="black" stroke-width="1.5" stroke-linecap="round"/>
<path d="M9.5 9.75H6.5" stroke="black" stroke-width="1.5" stroke-linecap="round"/>
</svg>
