<svg width="16" height="16" viewBox="0 0 16 16" fill="none" xmlns="http://www.w3.org/2000/svg">
<path d="M3.25 6L7.25 3C7.69444 2.66667 8.30556 2.66667 8.75 3L12.75 6C13.0648 6.23607 13.25 6.60656 13.25 7V12C13.25 12.6904 12.6904 13.25 12 13.25H10C9.86193 13.25 9.75 13.1381 9.75 13V11C9.75 10.0335 8.9665 9.25 8 9.25C7.0335 9.25 6.25 10.0335 6.25 11V13C6.25 13.1381 6.13807 13.25 6 13.25H4C3.30964 13.25 2.75 12.6904 2.75 12V7C2.75 6.60656 2.93524 6.23607 3.25 6Z" stroke="black" stroke-width="1.5"/>
</svg>
